<svg version="1.1" id="Layer_1" xmlns="http://www.w3.org/2000/svg" xmlns:xlink="http://www.w3.org/1999/xlink" x="0px" y="0px"
	 width="100%" viewBox="0 0 544 544" enable-background="new 0 0 544 544" xml:space="preserve">
<path fill="#000000" opacity="1.000000" stroke="none" 
	d="
M134.144745,46.100727 
	C166.626251,24.164066 202.159409,11.075131 240.507675,5.963105 
	C264.348541,2.784992 288.296021,3.276775 312.079956,7.440165 
	C407.678864,24.174801 473.046265,79.271317 512.079712,166.666733 
	C524.594238,194.686630 529.336609,224.810028 529.441345,255.681961 
	C529.625793,310.039795 514.073303,359.505890 483.130920,403.842194 
	C445.703491,457.470673 395.189972,492.514313 331.139618,507.558289 
	C307.795776,513.041199 284.213989,515.571655 260.335815,514.132141 
	C232.769180,512.470215 206.041138,506.460175 180.275665,496.447998 
	C176.791992,495.094269 173.845871,494.928314 170.320297,496.509827 
	C143.579926,508.505127 116.758240,520.319397 89.942574,532.146240 
	C85.996216,533.886780 82.111214,535.948364 77.705376,536.285645 
	C63.125019,537.402039 53.583912,525.893982 55.868481,510.546173 
	C59.950893,483.120300 63.067371,455.527710 68.025620,428.266357 
	C70.004105,417.388336 66.868721,409.752472 61.182888,401.265015 
	C39.643223,369.111877 26.031448,333.679413 20.875481,295.330109 
	C14.919055,251.027145 19.065504,207.617737 35.742176,165.880814 
	C50.851952,128.065384 74.587112,96.226387 104.715393,69.034157 
	C113.877762,60.764683 123.554817,53.135509 134.144745,46.100727 
M339.000549,470.451050 
	C381.192505,457.326782 416.576080,434.008484 444.415253,399.596100 
	C473.778137,363.300293 491.244141,322.205383 494.883270,275.318695 
	C496.876678,249.635193 495.141602,224.390305 487.937347,199.742111 
	C473.628998,150.788467 444.537384,112.006584 404.045502,81.669289 
	C370.926636,56.856003 333.746582,42.155308 292.230652,38.928219 
	C268.979553,37.120880 245.916306,38.171494 223.283203,43.787373 
	C176.092316,55.496689 136.633041,79.916344 104.948593,116.884819 
	C73.715408,153.326797 55.516388,195.263428 52.522114,243.260696 
	C50.662441,273.070740 54.775753,302.281525 64.146461,330.755188 
	C71.947975,354.460693 84.166405,375.725800 98.754555,395.765503 
	C103.289207,401.994751 105.151558,408.756836 103.951500,416.462555 
	C100.705208,437.307312 97.502907,458.160370 94.539322,479.046509 
	C93.883041,483.671753 92.245926,488.262848 92.884766,493.772522 
	C95.948227,492.492096 98.539253,491.466705 101.083717,490.336548 
	C121.632454,481.209259 142.249130,472.229156 162.676727,462.837952 
	C170.658264,459.168610 178.036072,459.113708 186.208817,462.407654 
	C209.169510,471.661652 233.047714,477.781860 257.762390,479.481018 
	C285.025177,481.355408 311.963959,478.707916 339.000549,470.451050 
z"/>
<path fill="#000000" opacity="1.000000" stroke="none" 
	d="
M342.565674,143.405609 
	C370.840790,167.512009 383.967041,197.977539 382.115906,234.583847 
	C380.793030,260.743073 369.882294,283.048676 352.261688,302.168976 
	C344.407684,310.691467 336.713623,319.347260 334.956848,331.337280 
	C333.970764,338.067291 333.980316,344.937439 333.350647,351.726746 
	C332.355042,362.461090 324.250702,370.199524 313.411041,370.262939 
	C285.912628,370.423737 258.412292,370.416504 230.913544,370.290161 
	C219.541718,370.237915 211.627289,361.933563 210.724106,349.678497 
	C210.638519,348.517181 210.551025,347.330719 210.686646,346.182159 
	C212.738281,328.806854 205.453995,315.273560 193.759995,303.173462 
	C176.658844,285.478516 166.210632,264.241547 163.997086,239.718887 
	C161.027115,206.816391 170.076859,177.441666 192.609268,152.735367 
	C215.516083,127.618568 244.268417,116.128372 277.916962,117.880081 
	C301.944580,119.130936 323.776672,127.256454 342.565674,143.405609 
M201.072403,253.461380 
	C205.443573,264.446014 211.993027,273.987762 220.114029,282.531525 
	C224.710281,287.367065 228.830399,292.615051 232.470535,298.210571 
	C238.655502,307.717926 242.301636,318.099152 243.505676,329.423615 
	C243.830872,332.482239 243.063293,336.830444 248.686676,336.777466 
	C264.677002,336.626831 280.669556,336.687744 296.661072,336.722473 
	C299.309235,336.728210 300.492371,335.727509 300.785553,332.969849 
	C301.382721,327.352844 302.371338,321.793854 304.046204,316.357910 
	C308.766266,301.038513 319.242279,289.620361 329.555359,278.014526 
	C344.569000,261.118896 351.509583,241.605072 348.922485,218.769714 
	C344.271606,177.717819 304.655121,146.298691 263.675232,151.518387 
	C215.036285,157.713638 184.668381,206.563736 201.072403,253.461380 
z"/>
<path fill="#000000" opacity="1.000000" stroke="none" 
	d="
M252.234024,419.123352 
	C244.299240,416.431763 237.503021,412.918365 233.213394,405.664886 
	C230.447372,400.987671 230.040710,396.273163 231.859283,391.313629 
	C233.430878,387.027679 236.269058,384.715973 241.196411,384.517395 
	C256.008636,383.920410 270.806702,384.518677 285.610504,384.546875 
	C290.765869,384.556702 295.921051,384.154510 301.077759,384.111969 
	C306.481476,384.067352 312.149963,384.065918 314.858276,389.949646 
	C317.730316,396.188934 316.893951,402.364502 312.787170,407.866089 
	C307.271240,415.255402 299.152649,418.241394 290.611267,420.266174 
	C277.874878,423.285431 265.201660,422.648743 252.234024,419.123352 
z"/>
</svg>